<svg width="166" height="166" viewBox="0 0 166 166" fill="none" xmlns="http://www.w3.org/2000/svg">
<path d="M157 83C157 97.6358 152.66 111.943 144.529 124.112C136.398 136.281 124.84 145.766 111.319 151.367C97.7968 156.968 82.9179 158.433 68.5633 155.578C54.2087 152.723 41.0232 145.675 30.6741 135.326C20.325 124.977 13.2772 111.791 10.4219 97.4367C7.56658 83.0821 9.03203 68.2032 14.6329 54.6814C20.2338 41.1597 29.7186 29.6025 41.8878 21.4712C54.057 13.34 68.3642 9 83 9" stroke="#3ECD7A" stroke-width="18" stroke-linecap="round"/>
<path d="M49.2069 116.794C42.5231 110.11 37.9714 101.595 36.1274 92.3241C34.2833 83.0534 35.2298 73.4441 38.847 64.7113C42.4642 55.9785 48.5898 48.5145 56.4491 43.2631C64.3084 38.0116 73.5484 35.2087 83.0007 35.2087C92.453 35.2087 101.693 38.0116 109.552 43.2631C117.412 48.5145 123.537 55.9785 127.154 64.7113C130.772 73.4441 131.718 83.0534 129.874 92.3241C128.03 101.595 123.478 110.11 116.795 116.794" stroke="#3ECD7A" stroke-width="18" stroke-linecap="round"/>
<path d="M67.7397 98.2617C64.7213 95.2432 62.6656 91.3975 61.8328 87.2107C61 83.0239 61.4275 78.6843 63.0611 74.7404C64.6947 70.7966 67.461 67.4257 71.0104 65.0541C74.5598 62.6825 78.7327 61.4167 83.0015 61.4167C87.2702 61.4167 91.4432 62.6825 94.9925 65.0541C98.5419 67.4257 101.308 70.7966 102.942 74.7404C104.575 78.6843 105.003 83.0239 104.17 87.2107C103.337 91.3975 101.282 95.2432 98.2632 98.2617" stroke="#3ECD7A" stroke-width="18" stroke-linecap="round"/>
</svg>
